<svg width="1024" height="1024" viewBox="0 0 1024 1024" xmlns="http://www.w3.org/2000/svg" preserveAspectRatio="xMidYMid meet"><svg x="52" y="266" width="901" height="507" xmlns="http://www.w3.org/2000/svg" preserveAspectRatio="none"><svg version="1.1" xmlns="http://www.w3.org/2000/svg" style="display: block;" width="901" height="507" viewBox="-9.15 2.99 2066.30 1161.56" preserveAspectRatio="none"><g id="svg-group-60f11c1e-d332-425b-bac4-5fddf8ba7350">
<path transform="translate(0,0)" fill="#7dd3c0" d="M 1927.14 12.4677 C 1943.63 11.6765 1983.53 11.2818 1999.62 13.0896 C 1995.03 22.2468 1985.72 35.1027 1979.99 44.0617 C 1964 69.0899 1946.46 93.1989 1929.6 117.579 C 1882.98 185.789 1835.87 253.665 1788.28 321.201 L 1530.45 684.367 C 1523.72 693.791 1517.82 704.184 1510.96 713.395 C 1487.01 745.524 1464.74 778.852 1441.52 811.492 C 1374.3 905.992 1289.92 1031.15 1158.75 1024.94 C 1126.74 1023.42 1090.44 1003.27 1070.15 978.815 C 1058.18 964.527 1049.48 947.789 1044.66 929.777 C 1036.16 898.427 1035.07 788.196 1038.16 754.354 C 996.952 752.36 955.701 751.428 914.446 751.558 C 897.827 751.731 881.291 753.133 864.994 753.341 C 850.133 753.531 834.797 751.61 819.469 751.901 C 780.947 752.631 715.584 757.254 679.148 750.778 C 684.878 740.005 708.417 700.307 714.894 692.501 C 723.55 691.482 739.707 691.903 748.866 691.927 L 805.37 692.03 L 952.105 691.999 C 980.251 691.997 1010.11 692.457 1038.11 691.618 C 1035.62 669.8 1038.74 647.123 1038.87 624.859 L 1038.93 444.056 C 1038.94 402.304 1042.79 335.948 1033.03 297.859 C 1011.89 215.419 923.346 173.934 844.463 197.454 C 766.409 220.726 742.476 273.658 705.693 336.98 L 638.355 450.317 L 462.487 743.939 L 399.816 847.318 C 386.016 869.74 373.305 888.927 359.866 912.058 C 349.287 930.378 336.325 948.532 325.653 966.758 C 310.473 992.684 295.155 1018.61 279.329 1044.16 C 261.559 1072.86 243.027 1111.05 220.664 1136.05 C 205.567 1140.1 188.913 1136.71 173.383 1136.59 C 165.171 1136.54 157.673 1136.99 149.493 1137.5 C 152.654 1130.12 165.83 1110.68 170.79 1102.44 L 227.798 1008.54 L 394.301 735.512 C 411.233 707.935 427.219 679.476 444.248 651.923 C 454.643 635.105 463.199 617.349 473.322 600.37 L 644.463 319.175 C 660.239 293.596 675.169 265.756 691.149 240.136 C 784.206 90.9448 1012.36 90.2033 1084.25 259.508 C 1101.94 301.16 1101.44 336.026 1101.37 379.555 L 1101.23 462.323 L 1098.76 777.107 C 1098.62 817.707 1096.76 864.597 1102.53 904.744 C 1104.92 921.337 1120.41 941.638 1135.27 950.72 C 1187.75 982.787 1257.67 929.762 1295.28 896.303 C 1334.63 861.303 1363.98 814.722 1393.74 772.35 L 1493.37 629.824 L 1919.66 18.2957 C 1922.04 14.9481 1922.97 13.392 1927.14 12.4677 z"/>
<path transform="translate(0,0)" fill="#7dd3c0" d="M 631.05 819.035 C 670.701 818.355 711.754 818.879 751.491 818.871 L 974.152 818.869 C 974.132 892.738 970.587 954.961 1018.98 1016.71 C 1059.3 1068.16 1122.46 1092.06 1186.73 1088.69 C 1295.19 1083 1381.41 1000.14 1441.93 916.971 C 1454.75 899.301 1466.32 880.934 1479.66 863.252 C 1490.23 849.256 1495.87 837.957 1508.45 824.436 C 1531.16 846.881 1548.73 877.442 1568.47 903.422 C 1612.53 961.302 1655.71 1019.85 1698 1079.05 C 1710.6 1096.54 1724.08 1113.21 1736.23 1130.82 C 1737.61 1132.48 1737.54 1132.54 1738.24 1134.47 L 1736.94 1135.61 C 1723.08 1137.72 1676.33 1139.89 1662.55 1137.87 C 1651.56 1128.86 1633.03 1097.58 1623.97 1085.15 C 1603.44 1056.98 1581.96 1028.53 1561.72 1000.2 L 1532.56 959.119 C 1524.22 947.173 1519.71 938.349 1509.32 927.905 C 1500.96 936.106 1492.83 950.213 1485.85 960.181 C 1474.63 976.28 1462.73 991.9 1450.2 1007 C 1388.06 1081.25 1300.33 1137.42 1202.75 1148.82 C 1068.18 1164.55 939.907 1075.71 917.623 940.214 C 914.278 919.877 913.483 897.348 911.687 876.411 C 887.1 873.949 844.431 876.203 818.386 875.789 C 745.722 874.632 670.394 877.589 597.908 875.586 C 605.922 864.4 624.508 831.45 631.05 819.035 z"/>
<path transform="translate(0,0)" fill="#7dd3c0" d="M 871.901 258.351 C 908.735 254.709 944.546 262.948 964.249 297.55 C 978.896 323.273 976.516 354.674 976.444 383.643 L 976.411 451.228 L 976.886 557.633 C 976.901 579.037 977.894 606.718 974.466 627.135 L 914.696 627.061 L 914.851 439.132 C 914.88 418.49 918.737 347.799 907.769 335.208 C 864.578 285.629 825.288 380.025 810.322 404.064 C 774.452 460.714 739.656 518.037 705.954 576.003 C 699.472 586.94 693.871 598.718 687.24 609.934 L 546.057 846.761 C 529.74 874.168 512.676 898.826 496.911 927.159 C 469.015 974.069 440.866 1022.28 410.847 1067.73 C 400.155 1083.92 378.889 1124.83 366.846 1136.32 C 355.958 1140.56 311.793 1136.28 296.69 1135.7 C 299.097 1129.65 308.52 1114.79 312.275 1108.56 C 323.709 1089.32 335.404 1070.24 347.355 1051.32 L 458.901 869.185 C 539.367 732.013 620.982 595.519 703.737 459.715 L 768.611 350.199 C 795.958 304.264 811.45 264.914 871.901 258.351 z"/>
<path transform="translate(0,0)" fill="#7dd3c0" d="M 1783.27 12.4396 C 1805.27 12.196 1827.27 12.424 1849.26 13.1234 C 1842.98 24.944 1834.64 35.0025 1826.92 45.9927 L 1782.42 109.647 L 1599.88 371.871 L 1400.38 655.228 C 1361.41 711.156 1325.35 770.358 1281.02 822.565 C 1261.41 845.669 1232.42 866.456 1205.75 881.053 C 1192.07 889.366 1176.81 894.757 1160.94 896.887 C 1157.93 869.988 1157.81 847.395 1158.5 820.28 C 1187.16 812.887 1201.67 806.72 1223.92 785.679 C 1259.61 752.533 1285.12 714.545 1311.68 674.309 C 1328.42 648.942 1348.74 623.969 1365.18 598 C 1372.25 586.831 1382.03 576.058 1389.77 565.146 L 1637.53 211.636 L 1735.62 70.1213 C 1748.16 52.2103 1760 33.4891 1772.85 15.9741 C 1775.7 12.102 1778.41 12.8289 1783.27 12.4396 z"/>
<path transform="translate(0,0)" fill="#7dd3c0" d="M 1584.79 713.632 C 1589.6 716.554 1632.21 775.992 1637.61 783.298 L 1839.59 1060.3 C 1856.31 1083.45 1879.89 1109.82 1891.48 1135.98 C 1879.32 1135.9 1867.16 1136.1 1855.01 1136.57 C 1842.05 1137.54 1833.37 1138.29 1820.19 1138.24 C 1812.01 1130.43 1793.86 1103.3 1786.26 1092.67 L 1718.4 998.453 L 1644.27 898.611 C 1621.53 867.526 1600.15 835.422 1575.93 805.327 C 1566.06 793.055 1555.78 780.184 1546.87 767.208 C 1553.18 751.679 1573.12 726.739 1584.79 713.632 z"/>
<path transform="translate(0,0)" fill="#7dd3c0" d="M 0 1134.32 L 0.636993 1133.69 C 14.8502 1119.57 31.1634 1086.34 42.8123 1068.99 C 63.1654 1038.68 80.7156 1005.54 99.9591 974.594 C 198.858 817.102 295.809 658.395 390.791 498.51 L 511.306 297.136 C 549.252 233.691 583.459 165.705 636.106 112.697 C 694.17 54.6796 764.475 18.9698 846.055 8.28169 C 882.509 3.5057 895.098 2.98644 931.583 7.19448 C 1028.5 18.3728 1111.61 68.7671 1165.08 150.606 C 1206.05 213.315 1220.15 266.483 1220.35 340.61 L 1220.99 586.526 C 1229.66 574.712 1239.95 562.776 1248.1 551.207 C 1266.01 525.779 1283.19 499.325 1300.68 473.692 L 1372.52 370.471 L 1528.31 149.561 L 1580.13 73.7441 C 1588.48 61.2977 1613.98 21.1599 1623.97 12.4375 C 1647.27 11.877 1675.31 12.1659 1698.73 12.8785 C 1661.04 70.3251 1621.31 125.589 1582.04 181.764 L 1390.7 454.238 L 1290.41 597.422 C 1250.8 654.013 1215.5 712.308 1160.21 754.854 C 1161.14 723.1 1160.61 689.668 1160.57 657.792 L 1160.38 495.398 L 1160.54 392.285 C 1160.66 354.204 1162.53 321.019 1154.13 283.479 C 1141.92 228.857 1120.29 186.408 1081.96 145.805 C 1035.05 96.8619 970.888 68.1696 903.135 65.841 C 818.676 63.751 751.338 91.3907 689.724 149.199 C 641.637 194.314 606.743 260.715 572.623 317.025 C 534.628 379.387 497.266 442.132 460.544 505.25 C 416.932 578.722 372.936 651.965 328.556 724.975 C 316.333 744.693 302.795 764.2 290.475 784.213 L 212.607 912.272 L 124.785 1057.91 C 111.573 1079.83 90.8961 1115.83 76.8251 1135.81 C 66.6566 1135.96 6.12455 1137.34 0 1134.99 L 0 1134.32 z"/>
<path transform="translate(0,0)" fill="#7dd3c0" d="M 1659.38 602.922 C 1665.78 608.986 1671.28 616.201 1676.75 623.106 C 1704.91 658.641 1729.44 696.755 1757.45 732.394 C 1759.67 735.212 1761.63 738.616 1763.72 741.55 C 1772.46 757.244 1785.97 770.614 1795.71 785.217 C 1809.25 805.499 1824.12 823.803 1838.5 843.277 L 1950.75 996.676 C 1982.04 1039.66 2014.85 1090.78 2048 1131.21 L 2048 1136.01 L 1971.55 1136.19 C 1962.76 1128.13 1958.3 1116.84 1951.39 1107.5 C 1940.61 1094.67 1931.87 1078.35 1921.64 1065.4 C 1899.43 1037.32 1879.45 1007.92 1858.48 979.107 L 1685.42 740.853 C 1666.78 714.874 1638.89 681.278 1622.46 655.097 C 1627.43 645.063 1651.6 611.594 1659.38 602.922 z"/>
</g></svg></svg></svg>